<?xml version="1.0" encoding="UTF-8"?>
<svg id="_图层_1" data-name="图层_1" xmlns="http://www.w3.org/2000/svg" version="1.1" viewBox="0 0 512.7 512.7">
  <!-- Generator: Adobe Illustrator 29.0.1, SVG Export Plug-In . SVG Version: 2.1.0 Build 192)  -->
  <defs>
    <style>
      .st0 {
        fill: #e0e0e0;
      }

      .st1 {
        fill: #384049;
      }
    </style>
  </defs>
  <rect class="st0" width="512.7" height="512.7" rx="118.6" ry="118.6"/>
  <g>
    <path class="st1" d="M297.7,204q3.3.5,5.3,2.5.3,1.9.3,4.3c0,.9,0,1.8,0,2.7,0,1,0,2,0,3,0,1,0,2.1,0,3.2,0,3.5,0,6.9,0,10.4,0,2.4,0,4.8,0,7.2,0,5,0,10,0,15.1,0,6.4,0,12.9,0,19.3,0,4.9,0,9.9,0,14.8,0,2.4,0,4.8,0,7.1,0,3.3,0,6.6,0,9.9,0,1,0,2,0,3,0,.9,0,1.8,0,2.7,0,.8,0,1.6,0,2.4q-.3,1.9-2.3,3.9c-2.6.2-5,.2-7.6.2-.7,0-1.4,0-2.1,0q-5.2,0-6.3-1.2c-.1-2.3-.2-4.5-.2-6.8,0-.7,0-1.4,0-2.2,0-2.4,0-4.7,0-7.1,0-1.6,0-3.3,0-4.9,0-4.3-.1-8.6-.2-12.9,0-4.4-.1-8.8-.2-13.2-.1-8.6-.2-17.3-.3-25.9q-.2.3-1.1,2c-1.7,3.1-3.3,6.2-5,9.2-.6,1-1.1,2.1-1.7,3.2q-13.6,25.2-19.2,33.6-2.6.6-5.8.7c-1,0-2.1.1-3.1.2-4.1-1.2-4.9-3-6.9-6.6-.4-.7-.8-1.5-1.2-2.3-.7-1.3-1.5-2.6-2.3-3.9-.8-1.4-1.5-2.8-2.3-4.2-.4-.7-.8-1.4-1.2-2.2-3.5-6.4-7.1-12.9-10.6-19.3-.5-1-1.1-2-1.7-3-1.3-2.4-2.7-4.9-4-7.3,0,.9,0,1.8,0,2.8,0,8.6-.2,17.2-.3,25.7,0,4.4-.1,8.8-.2,13.2,0,4.3,0,8.5-.2,12.8,0,1.6,0,3.3,0,4.9,0,2.3,0,4.5,0,6.8,0,1.3,0,2.6,0,3.9q-.2,2.9-1.2,3.9c-2.7,0-5.3.1-8,.1q-.4,0-2.3,0-5.6,0-6.7-1.1c0-1.4-.1-2.8-.1-4.2,0-.9,0-1.8,0-2.8,0-1,0-2,0-3,0-1.1,0-2.1,0-3.2,0-3.5,0-7,0-10.5,0-2.4,0-4.8,0-7.3,0-5.1,0-10.1,0-15.2,0-6.5,0-13,0-19.6,0-5,0-10,0-15,0-2.4,0-4.8,0-7.2,0-3.4,0-6.7,0-10.1,0-1,0-2,0-3q0-.5,0-2.8c0-.8,0-1.6,0-2.4q.1-1.8,1.1-2.8c2.6-.3,5.1-.5,7.7-.6q.4,0,2.1-.2c2.3,0,4,0,6.2.8,2.7,2.6,4.3,5.7,6,9,.6,1,1.1,2,1.7,3,1.9,3.4,3.7,6.8,5.4,10.2,1.3,2.5,2.6,5,4,7.4q.2.3,1,1.9c3.7,7,7.5,13.9,11.3,20.7.5.8.9,1.7,1.4,2.5.4.7.7,2.2,1.2,3.2s1.4,2.8,2.2,4.7c.7.7,1.2.9,1.8,0,.3-.9.5-1.5.7-2.4,1.2-3.5,2.8-6.6,4.6-9.9.3-.6.7-1.2,1-1.8,1.1-2,2.1-3.9,3.2-5.9.7-1.4,1.5-2.7,2.2-4.1q9.6-17.9,14.3-26.1c1.3-2.3,2.4-4.5,3.4-6.9,3.6-7.9,8.4-7.6,16.3-7.2Z"/>
    <path class="st1" d="M89,177.5c6.1.7,12,1.7,18,3.1.9.2,1.9.4,2.8.7,11.9,2.8,23.5,6.5,35.2,10.3.9.3,1.9.6,2.9.9q26.8,8.8,33.1,15.1.2,2,.2,4.6c0,1,0,1.9,0,2.9q0,.5,0,3.2c0,1.1,0,2.2,0,3.4,0,3.7,0,7.4,0,11.1,0,2.6,0,5.1,0,7.7,0,6,0,12.1,0,18.1,0,6.9,0,13.8,0,20.6,0,14.1,0,28.3-.1,42.4-1.3.7-2.6,1.3-3.8,2-.7.4-1.4.7-2.2,1.1q-2,.9-4.5.9c-3.9-1.6-7.4-3.6-11-5.7-10.1-5.5-20.4-9.3-31.5-12.4q-.3,0-2.1-.6c-11.5-3.1-24.6-3.8-36.4-1.8q-2.5.4-4.5-.6c0-16.3,0-32.5-.1-48.8,0-7.6,0-15.1,0-22.7,0-6.6,0-13.2,0-19.7,0-3.5,0-7,0-10.5,0-3.9,0-7.8,0-11.7,0-1.2,0-2.3,0-3.5,0-1.1,0-2.1,0-3.2,0-.9,0-1.8,0-2.8.3-3,1.2-4.2,4.3-4.2ZM95,188.5v105c6.6.3,13.2.7,20,1,3.9.6,7.5,1.2,11.2,2.2.9.2,1.8.4,2.8.7,12.4,3.1,23.7,7.7,34.9,13.6q4.9,2.5,7,2.5v-101c-7.3-3.6-14-6.7-21.5-9.4-1.1-.4-2.1-.8-3.2-1.2-11.9-4.2-24-7.4-36.3-10.5-1.1-.3-2.2-.6-3.3-.9-1.1-.3-2.1-.6-3.3-.8-1-.3-1.9-.5-2.9-.8q-2.5-.5-5.5-.5Z"/>
    <path class="st1" d="M396.7,219.9c-13.5-12.9-28.7-14.8-46.7-14.7-3.1,0-6.2,0-9.4,0-2.1,0-4.1,0-6.2,0q-2.5,0-2.9,0c-1,0-1.9,0-2.9,0-.9,0-1.8,0-2.6,0-3,0-4.9-.5-5.2,3,0,.8,0,1.6,0,2.4q0,2.3,0,2.8c0,1,0,2,0,3,0,3.4,0,6.7,0,10.1,0,2.4,0,4.8,0,7.2,0,5,0,10,0,15,0,6.5,0,13,0,19.6,0,5.1,0,10.1,0,15.2,0,2.4,0,4.8,0,7.3,0,3.5,0,7,0,10.5,0,1.1,0,2.1,0,3.2,0,1,0,2,0,3,0,.9,0,1.8,0,2.8,0,1.4,0,2.8.1,4.2q1.1,1.1,7,1.2,2.2,0,2.6,0c1.8,0,3.6,0,5.4,0,2.8,0,5.7,0,8.5,0,13.3.1,24.7-.5,37.2-5.5,11.2-5.4,20.3-15.5,24.4-27.2.3-.9.6-1.8.8-2.6,1.9-5.5,3-10.9,3.3-16.7.5-16.3-2.3-31.3-13.6-43.9ZM391,270.5c-.8,4.1-2,7.4-4,11-.6,1.1-1.2,2.1-1.8,3.2-6.2,7.5-16.3,13-20.2,13.8s-17.2,0-26,0v-77q34.2,0,43.3,8.9c9.8,12.2,9.8,25.1,8.7,40.1Z"/>
    <path class="st1" d="M61.9,197.3c.7,0,1.5,0,2.3,0q.4,0,2.4,0,.4,0,2.6,0,.4,0,2.6,0c2.1,0,4.2,0,6.3,0v9h-10v117c8.9-2,17.8-4,27-6,4.5-1,9.1-2,13.6-2.9q.5-.1,3-.7c7.2-1.5,13.4-1.7,20.4.6v6c-15.1,3.6-30.3,7-45.5,10.3-1.9.4-3.8.8-5.7,1.3-2.7.6-5.4,1.2-8.1,1.8q-.4,0-2.5.6c-4.1.9-7.3,1.4-11.3.1-1.7-1.7-1.1-3.9-1.1-6.2,0-1.1,0-2.3,0-3.4,0-1.2,0-2.5,0-3.8,0-1.3,0-2.6,0-4,0-3.6,0-7.2,0-10.8,0-3,0-6,0-9,0-7.1,0-14.1,0-21.2,0-7.3,0-14.6,0-21.9,0-6.2,0-12.5,0-18.7,0-3.7,0-7.5,0-11.2,0-4.2,0-8.3,0-12.5,0-1.2,0-2.5,0-3.8,0-1.1,0-2.3,0-3.4,0-1,0-2,0-3,.3-3,1.1-4.2,4.1-4.6Z"/>
    <path class="st1" d="M421.9,194.2q.4,0,2.7,0c2.9.4,3.5,1.1,5.4,3.4q1,1.8,1.9,3.9c.3.8.7,1.5,1,2.3q.2.4,1.1,2.5c.4.9.8,1.7,1.1,2.6,1.2,2.8,2.4,5.6,3.6,8.4.8,1.8,1.6,3.7,2.4,5.5,1.2,2.7,2.3,5.4,3.5,8.1,1.8,4.2,3.6,8.3,5.5,12.4.3.7.7,1.4,1,2.2.6,1.3,1.2,2.7,1.8,4,2.5,5.6,2.7,9.1.7,14.9-.6,1.4-1.2,2.8-1.8,4.2-.3.8-.7,1.5-1,2.3-1.1,2.5-2.1,5-3.2,7.5-1.5,3.4-2.9,6.9-4.4,10.3-.4.8-.7,1.7-1.1,2.6-3.6,8.3-6.9,16.7-10.2,25.2-.4.9-.7,1.9-1.1,2.8-.3.8-.6,1.6-.9,2.4q-.9,1.9-2.9,3.9-2.6.2-5.6.1c-1,0-2,0-3,0-.8,0-1.5,0-2.3,0-1.6-4.8,0-8.3,1.8-12.7.3-.7.6-1.5.9-2.3.7-1.6,1.3-3.2,2-4.8,1.1-2.5,2.1-5,3.1-7.5,3.1-7.4,6.2-14.9,9.4-22.2.5-1.1.9-2.2,1.4-3.3.9-2,1.7-4,2.6-5.9.4-.9.8-1.7,1.1-2.6.3-.7.7-1.5,1-2.2,1.4-5.8-1.5-11.2-3.8-16.4-.3-.8-.7-1.5-1-2.3-1.1-2.5-2.2-4.9-3.3-7.4-.7-1.6-1.4-3.2-2.1-4.9-2.8-6.3-5.5-12.6-8.3-18.9-.3-.7-.6-1.5-1-2.2-.6-1.4-1.2-2.7-1.8-4.1q-2.9-6.5-3.2-9.1c2.5-2.5,3.5-2.3,6.9-2.3Z"/>
    <path class="st1" d="M110,214.5q36.3,4.4,43.7,12.9c4.9,6.3,6.2,11.2,5.3,19.1-1.7,5.3-4.2,9-9,12-4.2,2-7.6,2.3-12.2,2.2-1.2,0-2.5,0-3.8,0-4.5-.3-8.6-1.2-13-2.3,0,.6,0,1.1,0,1.7,0,2.6,0,5.1,0,7.7,0,.9,0,1.8,0,2.7,0,.9,0,1.7,0,2.6,0,.8,0,1.6,0,2.4q-.1,1.9-1.1,2.9-7.5.2-10-1v-30c3.7-.9,5.2-1,8.8-.4q.5,0,2.8.4c.9.2,1.9.3,2.9.5q15,2.4,19.5.1c2.7-3.2,2.7-5.2,2.8-9.2-1-3.5-2.8-5-5.7-7.3-2.6-.9-4.8-1.6-7.5-2.2-.7-.2-1.4-.3-2.1-.5-5.6-1.3-11.2-2.2-16.9-2.9q-2.5-.4-4.5-1.4v-10Z"/>
  </g>
</svg>